<?xml version="1.0" encoding="UTF-8"?>
<svg width="23px" height="23px" viewBox="0 0 23 23" version="1.1" xmlns="http://www.w3.org/2000/svg" xmlns:xlink="http://www.w3.org/1999/xlink">
    <!-- Generator: Sketch 48.2 (47327) - http://www.bohemiancoding.com/sketch -->
    <title>icon_lobby</title>
    <desc>Created with Sketch.</desc>
    <defs></defs>
    <g id="Page-1" stroke="none" stroke-width="1" fill="none" fill-rule="evenodd">
        <g id="icon_lobby" fill="#FFFFFF" fill-rule="nonzero">
            <path d="M5.874743,17.143558 L4.874743,19.343558 L7.874743,21.643558 C9.374743,22.143558 10.874743,22.343558 12.374743,22.243558 L14.074743,20.243558 L10.774743,17.443558 L5.874743,17.143558" id="Path"></path>
            <polyline id="Path_1_" points="12.474743 12.543558 11.074743 17.243558 14.374743 19.943558 18.674743 18.043558 20.174743 13.443558 17.374743 10.543558"></polyline>
            <polyline id="Path_2_" points="7.774743 9.043558 8.574743 4.243558 5.874743 2.943558 2.974743 5.243558 2.174743 5.843558 1.574743 10.143558 4.174743 11.743558 7.774743 9.043558"></polyline>
            <path d="M6.874743,1.643558 C5.374743,2.343558 3.974743,3.443558 2.874743,4.843558 C2.774743,4.943558 2.774743,5.043558 2.674743,5.143558 L5.974743,2.543558 L6.874743,1.643558" id="Path_3_"></path>
            <polyline id="Path_4_" points="12.474743 12.143558 17.274743 10.343558 17.674743 5.743558 13.574743 2.743558 8.974743 4.243558 8.174743 8.943558 12.474743 12.143558"></polyline>
            <path d="M22.074743,10.743558 L20.574743,13.443558 L18.974743,18.243558 L19.374743,18.843558 C19.574743,18.643558 19.774743,18.343558 19.974743,18.143558 C21.574743,16.043558 22.374743,13.643558 22.274743,11.143558 L22.074743,10.743558" id="Path_5_"></path>
            <path d="M17.874743,5.543558 L20.574743,5.843558 L20.474743,5.443558 C19.874743,4.543558 19.074743,3.643558 18.074743,2.943558 C16.574743,1.743558 14.874743,1.043558 13.174743,0.743558 L13.774743,2.543558 L17.874743,5.543558" id="Path_6_"></path>
            <path d="M22.174743,10.543558 C22.074743,8.943558 21.574743,7.243558 20.674743,5.743558 L20.674743,5.843558 L22.174743,10.543558" id="Path_7_"></path>
            <path d="M1.374743,10.543558 L0.674743,12.543558 C0.874743,14.443558 1.574743,16.343558 2.774743,17.943558 L4.674743,19.243558 L5.674743,17.043558 L4.074743,12.343558" id="Path_8_"></path>
        </g>
    </g>
</svg>