<?xml version="1.0" encoding="UTF-8"?>
<svg width="19px" height="18px" viewBox="0 0 19 18" version="1.1" xmlns="http://www.w3.org/2000/svg" xmlns:xlink="http://www.w3.org/1999/xlink">
    <!-- Generator: Sketch 51.2 (57519) - http://www.bohemiancoding.com/sketch -->
    <title>Betsson Casino Icon</title>
    <desc>Created with Sketch.</desc>
    <defs></defs>
    <g id="Page-1" stroke="none" stroke-width="1" fill="none" fill-rule="evenodd">
        <g id="Homepage-Copy" transform="translate(-156.000000, -516.000000)" fill="#FFFFFF" fill-rule="nonzero">
            <g id="Card-Icon" transform="translate(147.000000, 507.000000)">
                <g id="Betsson-Casino-Icon" transform="translate(9.000000, 9.000000)">
                    <path d="M1.23912676,0 C0.554880282,0 0,0.535928327 0,1.1968218 L0,9.80317826 C0,10.4638472 0.554880282,11 1.23943662,11 L5.68382395,11 L7.83703522,6.53582629 C7.38053521,6.39799049 7.04929577,5.98635384 7.04929577,5.50003741 C7.04929577,4.90072857 7.55219718,4.41501078 8.17253521,4.41501078 C8.39671831,4.41501078 8.60556338,4.47839131 8.7808662,4.58771709 C9.10157043,4.0312855 9.84608451,3.60221359 10.4958592,3.6136625 L11,3.62249237 L11,1.19749526 C11,0.536526962 10.4451972,0 9.76087324,0 L1.23912676,0 Z M7.04000038,2.5068605 C7.04000038,1.90762648 7.54290179,1.42175904 8.16323981,1.42175904 C8.78357784,1.42175904 9.28647925,1.90762648 9.28647925,2.5068605 C9.28647925,3.10601968 8.78357784,3.59188713 8.16323981,3.59188713 C7.54290179,3.59188713 7.04000038,3.10601968 7.04000038,2.5068605 Z M1.58647877,2.5068605 C1.58647877,1.90762648 2.08938018,1.42175904 2.70971821,1.42175904 C3.33005624,1.42175904 3.83295765,1.90762648 3.83295765,2.5068605 C3.83295765,3.10601968 3.33005624,3.59188713 2.70971821,3.59188713 C2.08938018,3.59188713 1.58647877,3.10601968 1.58647877,2.5068605 Z M1.58647877,5.50003741 C1.58647877,4.90072857 2.08938018,4.41501078 2.70971821,4.41501078 C3.33005624,4.41501078 3.83295765,4.90072857 3.83295765,5.50003741 C3.83295765,6.09927143 3.33005624,6.58506405 2.70971821,6.58506405 C2.08938018,6.58506405 1.58647877,6.09927143 1.58647877,5.50003741 Z M1.58647877,8.56804375 C1.58647877,7.96880974 2.08938018,7.4829423 2.70971821,7.4829423 C3.33005624,7.4829423 3.83295765,7.96880974 3.83295765,8.56804375 C3.83295765,9.16720294 3.33005624,9.65307039 2.70971821,9.65307039 C2.08938018,9.65307039 1.58647877,9.16720294 1.58647877,8.56804375 Z" id="path-1"></path>
                    <path d="M8.67719281,4.71745138 L5.11511157,12.4588605 C4.82909386,13.0804187 5.09442451,13.8194558 5.70775742,14.1093092 L13.694187,17.883383 C14.3072902,18.1731589 15.0367004,17.9043475 15.3227947,17.2825563 L18.884876,9.54114721 C19.1708937,8.9196666 18.9056397,8.18055191 18.2922301,7.89069845 L10.3057239,4.11662467 C10.138312,4.03750314 9.96224209,4 9.78885389,4 C9.32737937,4 8.88513603,4.26555019 8.67719281,4.71745138 Z M7.78596377,11.9317201 C7.78596377,11.2670681 8.31762112,10.7282031 8.97355404,10.7282031 C9.62941034,10.7282031 10.1611443,11.2670681 10.1611443,11.9317201 C10.1611443,12.5964496 9.62941034,13.1353146 8.97355404,13.1353146 C8.31762112,13.1353146 7.78596377,12.5964496 7.78596377,11.9317201 Z M10.8507129,11.0000427 C10.8507129,10.3353907 11.3824468,9.79652573 12.0383031,9.79652573 C12.694236,9.79652573 13.2258934,10.3353907 13.2258934,11.0000427 C13.2258934,11.6646946 12.694236,12.203482 12.0383031,12.203482 C11.3824468,12.203482 10.8507129,11.6646946 10.8507129,11.0000427 Z M13.9154619,10.0682876 C13.9154619,9.40355805 14.4471193,8.86477069 15.1030522,8.86477069 C15.7589085,8.86477069 16.2906425,9.40355805 16.2906425,10.0682876 C16.2906425,10.7329395 15.7589085,11.2718045 15.1030522,11.2718045 C14.4471193,11.2718045 13.9154619,10.7329395 13.9154619,10.0682876 Z" id="Combined-Shape"></path>
                </g>
            </g>
        </g>
    </g>
</svg>